<?xml version="1.0" standalone="no"?>
<!DOCTYPE svg PUBLIC "-//W3C//DTD SVG 20010904//EN"
 "http://www.w3.org/TR/2001/REC-SVG-20010904/DTD/svg10.dtd">
<svg version="1.0" xmlns="http://www.w3.org/2000/svg"
 width="4961.000000pt" height="3508.000000pt" viewBox="0 0 4961.000000 3508.000000"
 preserveAspectRatio="xMidYMid meet">
<metadata>
Created by potrace 1.14, written by Peter Selinger 2001-2017
</metadata>
<g transform="translate(0.000000,3508.000000) scale(0.100000,-0.100000)"
fill="#000000" stroke="none">
<path d="M2120 17885 l0 -6175 850 0 850 0 0 4365 c0 3848 2 4365 15 4365 8 0
17 -10 20 -22 5 -26 1405 -8692 1405 -8702 0 -5 1839 -9 1841 -3 0 1 293 1991
652 4422 574 3892 654 4420 670 4423 16 3 17 -216 17 -4422 l0 -4426 920 0
920 0 0 6175 0 6175 -1355 0 c-1012 0 -1355 -3 -1355 -11 0 -22 -1302 -8754
-1305 -8758 -2 -2 -10 -1 -17 2 -9 3 -230 1351 -718 4386 l-705 4381 -1352 0
-1353 0 0 -6175z"/>
<path d="M13145 24038 c-3 -13 -446 -2781 -985 -6153 -539 -3371 -982 -6140
-985 -6152 l-5 -23 895 0 c492 0 895 2 895 5 0 3 74 501 165 1107 91 607 165
1109 165 1116 0 9 245 12 1190 12 655 0 1190 -1 1191 -2 0 -2 75 -505 167
-1118 l168 -1115 981 -3 982 -2 -5 32 c-3 18 -448 2796 -988 6173 l-982 6140
-1422 3 -1422 2 -5 -22z m1351 -2215 c4 -27 210 -1429 458 -3118 l451 -3070
-929 -3 c-511 -1 -930 -1 -932 0 -2 3 903 6178 911 6216 9 40 33 25 41 -25z"/>
<path d="M18860 17885 l0 -6175 975 0 975 0 0 2515 0 2515 338 0 c517 0 709
-20 905 -90 136 -50 230 -111 337 -219 194 -196 290 -445 341 -886 8 -69 14
-552 19 -1555 6 -1240 9 -1477 23 -1605 27 -247 48 -354 113 -562 l35 -113
990 0 c940 0 991 1 983 18 -32 74 -107 320 -128 423 -68 332 -76 531 -76 1994
0 720 -4 1275 -10 1370 -33 505 -119 899 -270 1237 -186 415 -501 738 -907
930 -62 29 -103 54 -103 63 0 8 35 33 82 56 607 305 990 867 1127 1654 55 312
56 335 56 1285 0 950 -1 982 -56 1300 -156 908 -609 1500 -1374 1795 -290 112
-649 185 -1050 215 -87 6 -747 10 -1732 10 l-1593 0 0 -6175z m3115 4390 c408
-66 640 -323 719 -795 30 -182 36 -356 36 -1059 0 -859 -10 -1003 -82 -1231
-123 -387 -375 -598 -798 -666 -72 -12 -212 -17 -567 -21 l-473 -6 0 1897 0
1896 538 0 c424 0 556 -3 627 -15z"/>
<path d="M25960 17885 l0 -6175 970 0 970 0 0 6175 0 6175 -970 0 -970 0 0
-6175z"/>
<path d="M30770 24050 c0 -7 -1877 -11751 -1966 -12303 l-7 -37 894 2 893 3
168 1115 c92 613 167 1116 167 1118 1 1 537 2 1191 2 945 0 1190 -3 1190 -12
0 -7 74 -509 165 -1116 91 -606 165 -1104 165 -1107 0 -3 441 -5 980 -5 777 0
980 3 980 13 0 6 -443 2782 -985 6168 -542 3386 -985 6159 -985 6163 0 3 -641
6 -1425 6 -937 0 -1425 -3 -1425 -10z m1799 -5273 c249 -1700 456 -3104 458
-3119 l6 -28 -932 0 c-749 0 -931 3 -931 13 0 7 205 1406 455 3110 250 1704
455 3102 455 3107 0 6 8 10 18 10 15 0 65 -327 471 -3093z"/>
<path d="M36470 17885 l0 -6175 850 0 850 0 0 4365 c0 3848 2 4365 15 4365 8
0 17 -10 20 -22 3 -13 313 -1933 690 -4268 377 -2335 693 -4289 702 -4342 l16
-98 919 0 c505 0 918 1 919 3 0 1 294 1991 652 4422 571 3869 655 4420 670
4423 16 3 17 -236 17 -4422 l0 -4426 920 0 920 0 0 6175 0 6175 -1354 0 -1353
0 -7 -46 c-29 -213 -1298 -8719 -1301 -8722 -2 -3 -10 -2 -17 1 -9 3 -230
1352 -718 4386 l-704 4381 -1353 0 -1353 0 0 -6175z"/>
<path d="M46030 17885 l0 -6175 975 0 975 0 0 6175 0 6175 -975 0 -975 0 0
-6175z"/>
</g>
</svg>
