<svg xmlns="http://www.w3.org/2000/svg" viewBox="0 0 210.26 207.79"><defs><style>.cls-1{fill:#982c55;}.cls-2{fill:#fff;}</style></defs><title>Asset 5</title><g id="Layer_2" data-name="Layer 2"><g id="Layer_1-2" data-name="Layer 1"><rect id="_Rectangle_" data-name="&lt;Rectangle&gt;" class="cls-1" width="210.26" height="207.79"/></g><g id="Layer_5" data-name="Layer 5"><g id="_Group_" data-name="&lt;Group&gt;"><path id="_Compound_Path_" data-name="&lt;Compound Path&gt;" class="cls-2" d="M179.5,170a8.25,8.25,0,0,1-2.32,5.81,7.81,7.81,0,0,1-6,2.49H133.35V120.5h19.26l3-22.25H133.35V84q0-5.64,2-8c1.77-2,4.76-3,9-3h11.95V52.76q-7-.66-17.26-.66-13,0-20.92,7.64t-8,21.91v16.6H90.85V120.5h19.26v57.77H39.05a7.8,7.8,0,0,1-6-2.49A8.26,8.26,0,0,1,30.75,170V37.82a8,8,0,0,1,8.3-8.3H171.2A8.24,8.24,0,0,1,177,31.85a7.8,7.8,0,0,1,2.49,6Z"/></g></g></g></svg>