<svg xmlns="http://www.w3.org/2000/svg" viewBox="0 0 210.26 207.79"><defs><style>.cls-1{fill:#982c55;}.cls-2{fill:#fff;}</style></defs><title>Asset 3</title><g id="Layer_2" data-name="Layer 2"><g id="Layer_1-2" data-name="Layer 1"><rect id="_Rectangle_" data-name="&lt;Rectangle&gt;" class="cls-1" width="210.26" height="207.79"/></g><g id="Layer_4" data-name="Layer 4"><g id="_Group_" data-name="&lt;Group&gt;"><path id="_Compound_Path_" data-name="&lt;Compound Path&gt;" class="cls-2" d="M36.07,60.07a17.63,17.63,0,0,1,0-25.24,17.64,17.64,0,0,1,25.23,0,17.65,17.65,0,0,1,0,25.24,17.64,17.64,0,0,1-25.23,0Zm-3,118.2V79H64v99.28Zm115.54,0V129.79q0-11.94-2-17.26-3.65-9-14.28-9t-14.94,8q-3.31,6-3.32,17.6v49.14H83.55V79H113.1V92.61h.33a26.5,26.5,0,0,1,10.62-11,32.77,32.77,0,0,1,18.6-5.31q21.58,0,30.21,13.61,6.64,11,6.64,33.87v54.45Z"/></g></g></g></svg>