<svg xmlns="http://www.w3.org/2000/svg" viewBox="0 0 210.26 207.79"><defs><style>.cls-1{fill:#982c55;}.cls-2{fill:#fff;}</style></defs><title>Asset 2</title><g id="Layer_2" data-name="Layer 2"><g id="Layer_1-2" data-name="Layer 1"><rect id="_Rectangle_" data-name="&lt;Rectangle&gt;" class="cls-1" width="210.26" height="207.79"/></g><g id="Layer_3" data-name="Layer 3"><g id="_Group_" data-name="&lt;Group&gt;"><path id="_Compound_Path_" data-name="&lt;Compound Path&gt;" class="cls-2" d="M105.13,125.15q-4.32,0-10.63-4a79.89,79.89,0,0,1-10.29-7.3l-3.32-2.33Q40,81.65,25.44,70.36L23.12,68.7a7.55,7.55,0,0,1-3-6.31V56.08A15.86,15.86,0,0,1,36.07,40.15H174.19a15.86,15.86,0,0,1,15.94,15.93v6.31a7.57,7.57,0,0,1-3,6.31L185.48,70q-14.28,11.3-56.11,41.5l-3.32,2.33a79.15,79.15,0,0,1-10.3,7.3Q109.45,125.15,105.13,125.15Zm81.68-42.84q-12,9.3-51.14,37.52l-3.32,2.66a92.93,92.93,0,0,1-12.61,8.63q-8,4.65-14.61,4.65t-14.61-4.31a132.61,132.61,0,0,1-12.62-8.64l-3.32-3Q34.41,90.61,23.45,82.31a2.16,2.16,0,0,0-2.16-.16A1.82,1.82,0,0,0,20.13,84v67.74a15.88,15.88,0,0,0,15.94,15.94H174.19a15.88,15.88,0,0,0,15.94-15.94V84A2.16,2.16,0,0,0,189,82,1.65,1.65,0,0,0,186.81,82.31Z"/></g></g></g></svg>