<svg xmlns="http://www.w3.org/2000/svg" viewBox="0 0 960 560"><defs><style>.cls-1{fill:#7c1f45;}.cls-2,.cls-3,.cls-4{fill:none;stroke:#fff;stroke-miterlimit:10;}.cls-2{stroke-width:3.11px;}.cls-3{stroke-width:3px;}.cls-4{stroke-width:2.91px;}</style></defs><title>Asset 6</title><g id="Layer_2" data-name="Layer 2"><g id="professionele_houding" data-name="professionele houding"><rect id="_Rectangle_" data-name="&lt;Rectangle&gt;" class="cls-1" width="960" height="560"/><g id="_Group_" data-name="&lt;Group&gt;"><path id="_Path_" data-name="&lt;Path&gt;" class="cls-2" d="M364.18,381.83c-.3-28.55,12.19-56.8,33.92-76.89.55-.55,1.63-.55,2.17-1.09,13.59-12.5,32.05-18.47,50.21-17.39"/><path id="_Path_2" data-name="&lt;Path&gt;" class="cls-2" d="M527.31,381.8a111.53,111.53,0,0,0-14.14-52.33C503.86,313.15,490,299.63,472.68,292a65.15,65.15,0,0,0-31.62-5.58"/></g><circle id="_Path_3" data-name="&lt;Path&gt;" class="cls-2" cx="445.93" cy="237.97" r="39.68"/><polygon id="_Path_4" data-name="&lt;Path&gt;" class="cls-3" points="437.13 301.5 428.52 371.44 445.74 381.36 462.96 371.5 454.35 301.5 437.13 301.5"/><circle id="_Path_5" data-name="&lt;Path&gt;" class="cls-2" cx="551.01" cy="373.85" r="6.86"/><circle id="_Path_6" data-name="&lt;Path&gt;" class="cls-2" cx="588.97" cy="373.85" r="6.86"/><rect id="_Rectangle_2" data-name="&lt;Rectangle&gt;" class="cls-2" x="544.15" y="251.15" width="51.68" height="109.82"/><rect id="_Rectangle_3" data-name="&lt;Rectangle&gt;" class="cls-2" x="550.23" y="213.1" width="38.76" height="12.92"/><rect id="_Rectangle_4" data-name="&lt;Rectangle&gt;" class="cls-4" x="561.13" y="228.05" width="16.98" height="12.92" transform="translate(804.13 -335.1) rotate(90)"/></g></g></svg>