<svg xmlns="http://www.w3.org/2000/svg" viewBox="0 0 210.26 207.79"><defs><style>.cls-1{fill:#982c55;}.cls-2{fill:#fff;}</style></defs><title>Asset 4</title><g id="Layer_2" data-name="Layer 2"><g id="Layer_1-2" data-name="Layer 1"><rect id="_Rectangle_" data-name="&lt;Rectangle&gt;" class="cls-1" width="210.26" height="207.79"/></g><g id="Layer_6" data-name="Layer 6"><g id="_Group_" data-name="&lt;Group&gt;"><path id="_Compound_Path_" data-name="&lt;Compound Path&gt;" class="cls-2" d="M157.26,51.1a77,77,0,0,1,16.43,24.08,71.51,71.51,0,0,1-4.31,64.91A75.55,75.55,0,0,1,142.15,167a73.7,73.7,0,0,1-72.22,1L30.75,178.27l10.63-38.18a73.17,73.17,0,0,1,0-73.71,74.56,74.56,0,0,1,26.89-26.9,72.87,72.87,0,0,1,64.91-4.31A77.38,77.38,0,0,1,157.26,51.1ZM105.13,164.66a60.42,60.42,0,0,0,30.88-8.3A63.11,63.11,0,0,0,158.75,134a58.59,58.59,0,0,0,8.47-30.72,57,57,0,0,0-5-23.24A65.78,65.78,0,0,0,148.46,59.9a61.55,61.55,0,0,0-19.92-13.44,60.11,60.11,0,0,0-23.41-4.65,59.41,59.41,0,0,0-30.71,8.3A62.15,62.15,0,0,0,52,72.52a59.55,59.55,0,0,0-8.3,30.71,58.9,58.9,0,0,0,9.63,32.54l1.33,2.33-6.31,22.57,23.24-6L73.92,156A59.25,59.25,0,0,0,105.13,164.66Zm33.53-46.15,1,.66c1.55.66,2.43,1.22,2.66,1.66a8.62,8.62,0,0,1,.16,3.32,17.05,17.05,0,0,1-1.33,5.48q-1.16,2.82-5.31,5.64a16.71,16.71,0,0,1-7.14,3.16,30.56,30.56,0,0,1-9,0,69.65,69.65,0,0,1-13.28-4.65q-16.93-7.31-30.88-27.23l-.67-.66Q67.61,95.6,67.61,87a21,21,0,0,1,6-14.94l.34-.33a7,7,0,0,1,5-2.32h4a4.16,4.16,0,0,1,2.16.49,4.62,4.62,0,0,1,1.49,2.49L92.18,86a3.68,3.68,0,0,1,.33,3.32,23,23,0,0,1-4.32,6,7.82,7.82,0,0,0-1.66,2.16c-.22.56,0,1.16.67,1.83a43,43,0,0,0,11,13.61,84.23,84.23,0,0,0,13.94,8.3q2.66,1.34,4-.33,4.32-5,6-7.3c.44-.89,1-1.33,1.66-1.33a9.85,9.85,0,0,1,2.33.33Q128.7,113.52,138.66,118.51Z"/></g></g></g></svg>